<svg width="283" height="44" viewBox="0 0 283 44" fill="none" xmlns="http://www.w3.org/2000/svg">
<path d="M83.4657 15.0664C82.9213 12.073 80.4896 8.25 74.0655 8.25C69.1296 8.25 64.8469 11.6402 64.8469 16.473C64.8469 20.2598 67.4963 23.1451 71.8516 23.9746L75.3721 24.6238C77.0779 24.9484 78.1305 25.8861 78.1305 27.1844C78.1305 28.7713 76.7513 29.8533 74.5011 29.8533C70.9806 29.8533 69.3836 27.7976 69.1659 25.4533L63.9032 26.7156C64.2662 30.3221 67.3149 34.9025 74.4285 34.9025C80.5622 34.9025 83.9375 30.8271 83.9375 26.8238C83.9375 23.1812 81.3969 20.0434 76.4972 19.1418L73.0493 18.4926C71.2709 18.168 70.5087 17.2664 70.5087 16.0402C70.5087 14.6336 71.8879 13.2992 74.0292 13.2992C77.1505 13.2992 78.1305 15.3189 78.3119 16.509L83.4657 15.0664Z" fill="#000121"/>
<path d="M91.0327 23.8303C91.1416 22.1713 92.2667 20.9451 94.0088 20.9451C96.005 20.9451 96.9486 22.2795 96.9486 24.0467V34.3615H102.465V23.109C102.465 19.1779 100.36 15.968 95.642 15.968C94.0451 15.968 92.1578 16.473 91.0327 17.591V8.25H85.516V34.3615H91.0327V23.8303Z" fill="#000121"/>
<path d="M109.46 23.2533C109.569 21.9189 110.73 20.2238 113.053 20.2238C115.666 20.2238 116.61 21.8828 116.683 23.2533H109.46ZM117.082 27.9057C116.574 29.3123 115.449 30.25 113.452 30.25C111.311 30.25 109.46 28.8074 109.351 26.7877H121.909C121.945 26.6795 122.018 25.85 122.018 25.0926C122.018 19.3221 118.57 15.8959 112.981 15.8959C108.299 15.8959 103.98 19.5746 103.98 25.3451C103.98 31.368 108.408 34.9025 113.38 34.9025C117.953 34.9025 120.82 32.3058 121.691 29.2041L117.082 27.9057Z" fill="#000121"/>
<path d="M129.262 34.3615V8.25H123.745V34.3615H129.262Z" fill="#000121"/>
<path d="M138.921 11.2074H133.985V13.5156C133.985 15.1746 133.078 16.4369 131.19 16.4369H130.283V21.2336H133.477V28.9156C133.477 32.4861 135.763 34.6861 139.502 34.6861C141.244 34.6861 142.151 34.2894 142.369 34.1812V29.6369C142.042 29.709 141.498 29.8172 140.917 29.8172C139.719 29.8172 138.921 29.4205 138.921 27.9418V21.2336H142.441V16.4369H138.921V11.2074Z" fill="#000121"/>
<path d="M148.497 23.2533C148.606 21.9189 149.768 20.2238 152.09 20.2238C154.704 20.2238 155.647 21.8828 155.72 23.2533H148.497ZM156.119 27.9057C155.611 29.3123 154.486 30.25 152.49 30.25C150.348 30.25 148.497 28.8074 148.389 26.7877H160.946C160.983 26.6795 161.055 25.85 161.055 25.0926C161.055 19.3221 157.607 15.8959 152.018 15.8959C147.336 15.8959 143.017 19.5746 143.017 25.3451C143.017 31.368 147.445 34.9025 152.417 34.9025C156.99 34.9025 159.857 32.3058 160.728 29.2041L156.119 27.9057Z" fill="#000121"/>
<path d="M174.251 16.4369C173.888 16.3287 173.344 16.2566 172.8 16.2566C171.348 16.2566 169.061 16.8336 168.118 18.8533V16.4369H162.782V34.3615H168.299V26.5353C168.299 22.9648 170.295 21.6664 172.509 21.6664C173.054 21.6664 173.634 21.7025 174.251 21.8467V16.4369Z" fill="#000121"/>
<path d="M183.086 8.79098V34.3615H193.466C198.329 34.3615 201.523 31.2959 201.523 27.1123C201.523 23.7943 199.273 21.6664 196.95 21.1254C199.055 20.4402 200.725 18.2762 200.725 15.6434C200.725 11.7123 197.785 8.79098 192.704 8.79098H183.086ZM188.675 19.0336V13.5156H191.724C193.974 13.5156 195.099 14.5975 195.099 16.2566C195.099 17.9877 193.793 19.0336 191.796 19.0336H188.675ZM188.675 29.709V23.7221H192.268C194.518 23.7221 195.825 24.9484 195.825 26.7156C195.825 28.5549 194.482 29.709 192.268 29.709H188.675Z" fill="#000121"/>
<path d="M214.888 34.3615H220.187C220.15 34.073 220.005 32.7746 220.005 31.1517V16.4369H214.489V26.6435C214.489 28.4467 213.327 29.709 211.476 29.709C209.516 29.709 208.573 28.3385 208.573 26.6074V16.4369H203.056V27.7615C203.056 31.5844 205.524 34.7582 209.916 34.7582C211.73 34.7582 213.799 34.109 214.743 32.5582C214.743 33.0271 214.815 34.0369 214.888 34.3615Z" fill="#000121"/>
<path d="M240.756 8.25H235.311V17.8434C234.876 17.1582 233.533 16.0041 230.448 16.0041C225.331 16.0041 221.701 20.0074 221.701 25.3451C221.701 30.8631 225.548 34.7582 230.63 34.7582C232.807 34.7582 234.622 33.8566 235.457 32.6303C235.457 33.3517 235.565 34.1451 235.602 34.3615H240.901C240.864 33.9648 240.756 32.7746 240.756 31.1517V8.25ZM227.254 25.3812C227.254 22.3877 229.178 20.9451 231.319 20.9451C233.46 20.9451 235.384 22.3877 235.384 25.3812C235.384 28.3385 233.46 29.8533 231.319 29.8533C229.178 29.8533 227.254 28.3385 227.254 25.3812Z" fill="#000121"/>
<path d="M261.66 8.25H256.216V17.8434C255.78 17.1582 254.437 16.0041 251.353 16.0041C246.235 16.0041 242.606 20.0074 242.606 25.3451C242.606 30.8631 246.453 34.7582 251.534 34.7582C253.712 34.7582 255.526 33.8566 256.361 32.6303C256.361 33.3517 256.47 34.1451 256.506 34.3615H261.805C261.769 33.9648 261.66 32.7746 261.66 31.1517V8.25ZM248.159 25.3812C248.159 22.3877 250.082 20.9451 252.224 20.9451C254.365 20.9451 256.288 22.3877 256.288 25.3812C256.288 28.3385 254.365 29.8533 252.224 29.8533C250.082 29.8533 248.159 28.3385 248.159 25.3812Z" fill="#000121"/>
<path d="M271.894 41.25L283 16.4369H277.157L273.164 26.0303L268.773 16.4369H262.603L270.188 31.9451L266.087 41.25H271.894Z" fill="#000121"/>
<path d="M15.384 5.64083L4.16719 14.9229C2.80768 16.0479 2.18961 17.8355 2.56235 19.5646L6.82155 39.3225C7.37546 41.892 9.91003 43.5379 12.4827 42.9987L37.7755 37.6977C40.3481 37.1585 41.9846 34.6384 41.4307 32.0689L37.1715 12.311C36.7988 10.5819 35.4967 9.19671 33.7907 8.7142L19.7147 4.73319C18.2057 4.30639 16.5866 4.64572 15.384 5.64083Z" fill="#00E0FF" fill-opacity="0.8"/>
<path d="M28.6998 4.74337L14.6291 8.71823C12.9236 9.2 11.6226 10.5849 11.2508 12.3142L7.00274 32.0744C6.45027 34.6442 8.0877 37.1657 10.66 37.7063L35.9499 43.0212C38.5222 43.5618 41.0554 41.9168 41.6078 39.347L45.8559 19.5867C46.2277 17.8575 45.6088 16.0691 44.249 14.9431L33.03 5.6534C31.8272 4.65745 30.2083 4.31723 28.6998 4.74337Z" fill="#0038FF" fill-opacity="0.64"/>
<path d="M21.9502 1.15951L9.02053 7.94118C7.45351 8.76309 6.47183 10.3865 6.47183 12.156V32.3526C6.47183 34.9811 8.60268 37.1119 11.2312 37.1119H37.0906C39.7192 37.1119 41.85 34.9811 41.85 32.3525V12.156C41.85 10.3865 40.8683 8.76309 39.3013 7.94118L26.3716 1.15951C24.9873 0.43341 23.3346 0.43341 21.9502 1.15951Z" fill="#0001AF" fill-opacity="0.72"/>
<path d="M20.7711 14.259C21.8728 14.259 22.805 13.3794 22.805 12.2484C22.805 11.1593 21.8728 10.2378 20.7711 10.2378C19.627 10.2378 18.7371 11.1593 18.7371 12.2484C18.7371 13.3794 19.627 14.259 20.7711 14.259ZM18.7371 16.9398C18.7371 15.8507 17.8049 14.9292 16.7032 14.9292C15.5591 14.9292 14.6693 15.8507 14.6693 16.9398C14.6693 18.0708 15.5591 18.9504 16.7032 18.9504C17.8049 18.9504 18.7371 18.0708 18.7371 16.9398ZM27.5509 14.259C28.6526 14.259 29.5848 13.3794 29.5848 12.2484C29.5848 11.1593 28.6526 10.2378 27.5509 10.2378C26.4068 10.2378 25.5169 11.1593 25.5169 12.2484C25.5169 13.3794 26.4068 14.259 27.5509 14.259ZM31.6187 14.9292C30.4746 14.9292 29.5848 15.8507 29.5848 16.9398C29.5848 18.0708 30.4746 18.9504 31.6187 18.9504C32.7204 18.9504 33.6527 18.0708 33.6527 16.9398C33.6527 15.8507 32.7204 14.9292 31.6187 14.9292ZM30.2204 21.5056C29.1187 20.8773 28.2288 18.9504 27.3814 17.4006C26.7034 16.2277 25.4322 15.5994 24.161 15.5994C22.8474 15.5994 21.5762 16.2277 20.8982 17.4006C20.0507 18.9504 19.2032 20.8773 18.0591 21.5056C16.8303 22.2177 16.0252 23.5162 16.0252 24.9823C16.0252 27.2023 17.8049 29.0035 20.0931 29.0035C22.2541 29.0873 23.144 27.6631 24.161 27.6631C25.1356 27.6631 26.0254 29.0873 28.2288 29.0035C30.4746 29.0035 32.2967 27.2023 32.2967 24.9823C32.2967 23.5162 31.4492 22.2177 30.2204 21.5056Z" fill="white"/>
</svg>
