<?xml version="1.0" standalone="no"?>
<!DOCTYPE svg PUBLIC "-//W3C//DTD SVG 20010904//EN"
 "http://www.w3.org/TR/2001/REC-SVG-20010904/DTD/svg10.dtd">
<svg version="1.0" xmlns="http://www.w3.org/2000/svg"
 width="512.000000pt" height="512.000000pt" viewBox="0 0 512.000000 512.000000"
 preserveAspectRatio="xMidYMid meet">
<metadata>
Created by potrace 1.11, written by Peter Selinger 2001-2013
</metadata>
<g transform="translate(0.000000,512.000000) scale(0.100000,-0.100000)"
fill="#000000" stroke="none">
<path d="M2385 4774 c-27 -9 -374 -185 -769 -392 -534 -280 -732 -389 -769
-422 -65 -58 -122 -146 -147 -228 -19 -62 -20 -95 -20 -1206 l1 -1141 22 -65
c51 -150 180 -305 299 -360 49 -22 226 -63 783 -180 396 -83 731 -153 745
-155 14 -3 305 -63 647 -135 452 -94 641 -130 692 -130 199 0 387 136 456 329
8 24 117 516 242 1095 211 972 228 1058 227 1146 -2 181 -57 273 -274 451
l-150 123 0 76 c0 148 -45 256 -150 360 -64 62 -94 80 -786 441 -395 207 -743
384 -773 393 -68 20 -208 20 -276 0z m-137 -1000 c80 -33 132 -110 132 -194 0
-158 -163 -256 -307 -185 -123 61 -151 218 -60 322 59 67 155 91 235 57z m710
0 c145 -60 176 -248 59 -351 -93 -82 -247 -63 -314 38 -25 37 -28 52 -28 119
0 66 4 82 27 117 51 78 169 114 256 77z m-1121 -499 c60 -27 107 -90 118 -157
20 -119 -84 -238 -210 -238 -127 0 -235 125 -210 242 32 146 168 216 302 153z
m1576 -8 c153 -90 128 -319 -42 -376 -135 -45 -281 57 -281 198 0 78 71 179
142 200 55 17 130 8 181 -22z m-788 -51 c130 -34 193 -93 284 -262 121 -225
170 -289 276 -359 222 -148 252 -462 60 -644 -82 -77 -165 -113 -279 -119
-115 -6 -174 10 -312 84 -56 30 -113 54 -128 54 -29 0 -64 -15 -166 -72 -291
-164 -626 -21 -680 290 -27 156 58 337 196 418 83 49 142 128 258 344 37 69
82 140 99 158 98 102 254 145 392 108z"/>
</g>
</svg>
